<svg width="16" height="16" viewBox="0 0 16 16" fill="none" xmlns="http://www.w3.org/2000/svg">
<path fill-rule="evenodd" clip-rule="evenodd" d="M2.59572 4.29184C2.59572 3.35509 3.35547 2.59534 4.29147 2.59534H5.06322C5.51022 2.59534 5.93997 2.41834 6.25797 2.10259L6.79722 1.56259C7.45797 0.89884 8.53197 0.89584 9.19572 1.55659L9.20247 1.56259L9.74247 2.10259C10.0597 2.41834 10.4895 2.59534 10.9372 2.59534H11.7082C12.645 2.59534 13.4047 3.35509 13.4047 4.29184V5.06209C13.4047 5.51059 13.5817 5.93959 13.8975 6.25759L14.4375 6.79759C15.1012 7.45834 15.105 8.53159 14.4442 9.19609L14.4375 9.20284L13.8975 9.74284C13.5817 10.0593 13.4047 10.4898 13.4047 10.9368V11.7086C13.4047 12.6453 12.645 13.4043 11.7082 13.4043H10.9372C10.4895 13.4043 10.0597 13.5821 9.74247 13.8978L9.20247 14.4371C8.54247 15.1016 7.46847 15.1046 6.80397 14.4438C6.80172 14.4416 6.79947 14.4393 6.79722 14.4371L6.25797 13.8978C5.93997 13.5821 5.51022 13.4043 5.06322 13.4043H4.29147C3.35547 13.4043 2.59572 12.6453 2.59572 11.7086V10.9368C2.59572 10.4898 2.41797 10.0593 2.10222 9.74284L1.56297 9.20284C0.898473 8.54209 0.895473 7.46809 1.55622 6.80434L1.56297 6.79759L2.10222 6.25759C2.41797 5.93959 2.59572 5.51059 2.59572 5.06209V4.29184Z" stroke="#008ECC" stroke-linecap="round" stroke-linejoin="round"/>
<path d="M6.07251 9.92711L9.92751 6.07211" stroke="#008ECC" stroke-linecap="round" stroke-linejoin="round"/>
<path d="M9.92505 10.4918C9.77505 10.4918 9.63255 10.4318 9.52755 10.3268C9.47505 10.2743 9.43755 10.2068 9.40755 10.1393C9.37755 10.0718 9.36255 10.005 9.36255 9.9293C9.36255 9.8543 9.37755 9.7793 9.40755 9.7118C9.43755 9.6443 9.47505 9.5843 9.52755 9.5318C9.73755 9.3218 10.1125 9.3218 10.3225 9.5318C10.375 9.5843 10.42 9.6443 10.45 9.7118C10.4725 9.7793 10.4875 9.8543 10.4875 9.9293C10.4875 10.005 10.4725 10.0718 10.45 10.1393C10.42 10.2068 10.375 10.2743 10.3225 10.3268C10.2175 10.4318 10.075 10.4918 9.92505 10.4918Z" fill="#008ECC"/>
<path d="M6.06995 6.63708C5.99495 6.63708 5.92745 6.62133 5.85995 6.59133C5.79245 6.56133 5.72495 6.52457 5.67245 6.47207C5.61995 6.41207 5.58245 6.35207 5.55245 6.28457C5.52245 6.21632 5.50745 6.14957 5.50745 6.07457C5.50745 5.99882 5.52245 5.92457 5.55245 5.85707C5.58245 5.78957 5.61995 5.72207 5.67245 5.67707C5.88995 5.46632 6.25745 5.46632 6.46745 5.67707C6.57245 5.78132 6.63245 5.92457 6.63245 6.07457C6.63245 6.14957 6.62495 6.21632 6.59495 6.28457C6.56495 6.35207 6.51995 6.41207 6.46745 6.47207C6.41495 6.52457 6.35495 6.56133 6.28745 6.59133C6.21995 6.62133 6.14495 6.63708 6.06995 6.63708Z" fill="#008ECC"/>
</svg>
